Coordinates
version=1
nRows=6
nColumns=63
inDegrees=yes

Units are S.I. units (second, meters, Newtons, ...)
If the header above contains a line with 'inDegrees', this indicates whether rotational values are in degrees (yes) or radians (no).

endheader
time	pelvis_tilt	pelvis_list	pelvis_rotation	pelvis_tx	pelvis_ty	pelvis_tz	hip_flexion_r	hip_adduction_r	hip_rotation_r	knee_angle_r	knee_angle_r_beta	ankle_angle_r	subtalar_angle_r	mtp_angle_r	hip_flexion_l	hip_adduction_l	hip_rotation_l	knee_angle_l	knee_angle_l_beta	ankle_angle_l	subtalar_angle_l	mtp_angle_l	L5_S1_Flex_Ext	L5_S1_Lat_Bending	L5_S1_axial_rotation	L4_L5_Flex_Ext	L4_L5_Lat_Bending	L4_L5_axial_rotation	L3_L4_Flex_Ext	L3_L4_Lat_Bending	L3_L4_axial_rotation	L2_L3_Flex_Ext	L2_L3_Lat_Bending	L2_L3_axial_rotation	L1_L2_Flex_Ext	L1_L2_Lat_Bending	L1_L2_axial_rotation	L1_T12_Flex_Ext	L1_T12_Lat_Bending	L1_T12_axial_rotation	Abs_r3	Abs_r2	Abs_r1	Abs_t1	Abs_t2	neck_flexion	neck_bending	neck_rotation	arm_flex_r	arm_add_r	arm_rot_r	elbow_flex_r	pro_sup_r	wrist_flex_r	wrist_dev_r	arm_flex_l	arm_add_l	arm_rot_l	elbow_flex_l	pro_sup_l	wrist_flex_l	wrist_dev_l
      6.05000000	      3.48285365	     -8.92092430	     99.97130199	      0.21695388	      0.92401293	      0.56757322	     13.06987216	     -4.32792073	    -23.70998515	     14.96163859	      0.26112985	     21.81674738	    -15.39540122	      0.00000000	     14.25276528	      2.33215911	     36.93335850	     13.41644458	      0.23416113	     16.28359187	     13.32980647	      0.00000000	     -0.07275303	     -0.38734369	      3.74194115	     -0.13510965	     -0.51516711	      3.97581247	     -0.11952596	     -0.94178745	      3.97581247	     -0.08314944	     -0.94178745	      3.27419850	     -0.06755846	     -0.78987126	      3.04032718	     -0.04157108	     -0.59999538	      2.80645586	     -0.51966763	     -4.38170931	     20.81155408	      0.00000000	      0.00000000	      1.64659415	      1.98246225	     -7.10987786	     79.32263945	    -31.21439201	     44.14541017	     75.87026333	     80.34642662	      3.68150542	      8.19406327	     46.26224051	    -20.63454535	     15.85833854	     99.86413525	     69.34546178	     -8.37803738	      0.15541119
      6.06666667	      4.32596785	     -9.68062883	     98.48137174	      0.21970648	      0.92160031	      0.57082178	     14.53351966	     -3.80883019	    -28.18326595	     15.79728570	      0.27571465	     19.57167387	    -16.85311120	      0.00000000	     14.89385681	      1.15073376	     36.99842613	     12.94922603	      0.22600663	     15.91677764	     13.60112341	      0.00000000	     -0.04283068	     -0.40970546	      4.36740416	     -0.07954086	     -0.54490826	      4.64036692	     -0.07036653	     -0.99615786	      4.64036692	     -0.04895119	     -0.99615786	      3.82147864	     -0.03977257	     -0.83547138	      3.54851588	     -0.02447345	     -0.63463376	      3.27555312	     -0.30593529	     -4.63467012	     24.29019174	      0.00000000	      0.00000000	      2.97575030	      3.14168297	    -11.67176221	     80.61543682	    -31.33903986	     47.48403663	     71.73234481	     79.98246998	      2.13324692	      8.38885090	     48.45672358	    -14.15019409	     20.47687014	     92.33795518	     75.13083594	     -8.69715740	     -2.96660851
      6.08333333	      4.92403449	    -10.61127299	     96.90748876	      0.22324608	      0.91812645	      0.57400388	     15.99058753	     -3.44852975	    -32.60010282	     16.54125251	      0.28869932	     18.58807246	    -17.55134103	      0.00000000	     15.60699461	      0.13225746	     36.91486095	     12.51872097	      0.21849290	     15.54528645	     13.73203023	      0.00000000	     -0.01047861	     -0.46534922	      4.97287835	     -0.01945984	     -0.61891447	      5.28368325	     -0.01721532	     -1.13145010	      5.28368325	     -0.01197601	     -1.13145010	      4.35126856	     -0.00973044	     -0.94894014	      4.04046366	     -0.00598748	     -0.72082595	      3.72965877	     -0.07484770	     -5.26412349	     27.65765755	      0.00000000	      0.00000000	      4.76098170	      3.83166459	    -15.65555250	     82.58718074	    -30.57956423	     50.70536083	     66.05678192	     78.01408666	      1.08053089	      8.20135327	     48.30282539	     -9.08774008	     23.18001565	     87.72220847	     80.11901970	     -8.96873050	     -5.04688529
      6.10000000	      5.11301285	    -11.75457758	     95.24087870	      0.22770251	      0.91382016	      0.57724163	     17.60072251	     -3.26801360	    -35.64858521	     17.17953666	      0.29983948	     19.21269463	    -17.77174685	      0.00000000	     16.44530847	     -0.58491174	     36.57982903	     12.00725746	      0.20956618	     15.56922712	     13.38318646	      0.00000000	      0.02146989	     -0.57822896	      5.60299885	      0.03987173	     -0.76904451	      5.95318628	      0.03527288	     -1.40590588	      5.95318628	      0.02453794	     -1.40590588	      4.90262400	      0.01993694	     -1.17912449	      4.55243657	      0.01226789	     -0.89567665	      4.20224914	      0.15335727	     -6.54104159	     31.16219871	      0.00000000	      0.00000000	      6.75499023	      4.43277488	    -18.98508348	     84.76189947	    -29.19729864	     53.36496990	     58.94592341	     72.42407124	      0.09764759	      7.97190827	     45.92502930	     -5.75442389	     25.35524069	     86.49056633	     82.07947920	     -9.54595842	     -6.29735335
      6.11666667	      4.65227399	    -13.25930973	     93.42219966	      0.23324500	      0.90872886	      0.58044196	     19.66058661	     -3.45203625	    -36.64952509	     17.87671282	      0.31200750	     21.34357499	    -17.47664377	      0.00000000	     17.61846358	     -0.77416185	     35.82691955	     11.49815308	      0.20068063	     16.14832987	     12.51862721	      0.00000000	      0.05873554	     -0.79890136	      6.29783487	      0.10907778	     -1.06253881	      6.69144955	      0.09649662	     -1.94244877	      6.69144955	      0.06712885	     -1.94244877	      5.51060551	      0.05454182	     -1.62911965	      5.11699083	      0.03356149	     -1.23749821	      4.72337615	      0.41954210	     -9.03733196	     35.02666820	      0.00000000	      0.00000000	      8.95418294	      5.13113065	    -22.57345062	     86.41505195	    -27.52124372	     53.60703994	     50.94297020	     68.87553559	     -0.03766184	      7.77210507	     42.12160912	     -4.14143463	     28.06888876	     87.87981620	     82.22625150	    -10.46226741	     -6.45310562
      6.13333333	      3.61766700	    -15.11683066	     91.28086968	      0.24020197	      0.90303335	      0.58321774	     22.18616185	     -3.74077294	    -35.64546213	     18.51935491	      0.32322372	     23.78118473	    -17.50923787	      0.00000000	     19.04699050	     -0.57760214	     35.43257623	     10.92814960	      0.19073219	     17.14137273	     10.07804992	      0.00000000	      0.09751144	     -1.13667448	      7.09359338	      0.18108850	     -1.51177706	      7.53694297	      0.16020155	     -2.76371033	      7.53694297	      0.11144583	     -2.76371033	      6.20689421	      0.09054913	     -2.31790660	      5.76354462	      0.05571804	     -1.76070877	      5.32019504	      0.69651449	    -12.85828905	     39.45243830	      0.00000000	      0.00000000	     12.15131387	      6.71436066	    -26.64997206	     88.42599188	    -26.83102391	     55.78577704	     43.86965836	     51.78229461	     -2.94232345	      8.20710277	     37.98017007	     -4.09885331	     31.73213011	     90.54661046	     82.12634824	    -10.95365960	     -5.28935351
